:FULLY-SPECIFIED
:FORCE-ALL-JOINTS-BE-3DOF
:DEGREES
324
root 9.71958 16.65 9.12753 7.14577 10.0661 2.64313
lfemur 16.0548 4.6833 -20.4843
ltibia 15.0203 0 0
lfoot -1.92374 -0.120694 0
ltoes -5.06713 0 0
rfemur -41.4419 9.80527 10.0392
rtibia 28.8737 0 0
rfoot -23.0161 -10.891 0
rtoes -18.0687 0 0
lowerback -7.71964 -4.98851 -5.29851
upperback -1.15203 -6.26056 2.50176
thorax 3.94252 -3.22125 4.85877
lowerneck -19.2897 -5.33633 -13.056
upperneck 21.2891 -6.86101 13.199
head 11.0089 -2.6812 5.98024
lclavicle -5.86416e-14 1.25494e-14 0
lhumerus -18.2829 -33.3706 95.9643
lradius 33.9387 0 0
lwrist 11.8448 0 0
lhand -9.84676 -21.6228 0
lfingers 7.12502 0 0
lthumb 16.1316 7.73155 0
rclavicle -5.86416e-14 1.25494e-14 0
rhumerus -48.7031 3.8764 -81.6845
rradius 30.3946 0 0
rwrist -16.1613 0 0
rhand -26.9982 -25.6618 0
rfingers 7.12502 0 0
rthumb -0.418399 -55.6399 0
325
root 9.69467 16.6499 9.31517 7.06497 10.1671 2.39292
lfemur 15.789 4.84334 -19.8071
ltibia 16.8042 0 0
lfoot -0.747923 -0.0231526 0
ltoes -5.58711 0 0
rfemur -41.1064 9.32457 10.9104
rtibia 29.6667 0 0
rfoot -22.2856 -10.1056 0
rtoes -17.6945 0 0
lowerback -7.62948 -4.97494 -5.12218
upperback -1.18504 -6.26206 2.56491
thorax 3.84536 -3.21749 4.83522
lowerneck -19.3215 -5.34469 -13.0835
upperneck 21.2438 -6.8809 13.2928
head 11.0069 -2.68086 6.01631
lclavicle -5.47563e-14 1.15196e-14 0
lhumerus -18.8409 -32.6047 96.3175
lradius 33.2785 0 0
lwrist 11.2139 0 0
lhand -9.84329 -21.6735 0
lfingers 7.12502 0 0
lthumb 16.1349 7.68075 0
rclavicle -5.47563e-14 1.15196e-14 0
rhumerus -48.6184 3.82237 -81.6357
rradius 30.3278 0 0
rwrist -16.1329 0 0
rhand -27.0922 -25.5935 0
rfingers 7.12502 0 0
rthumb -0.509181 -55.5713 0
326
root 9.6696 16.6501 9.50292 6.98218 10.2596 2.13833
lfemur 15.4851 5.00544 -19.1283
ltibia 18.6247 0 0
lfoot 0.422863 0.0828485 0
ltoes -6.10753 0 0
rfemur -40.7513 8.83203 11.7999
rtibia 30.4836 0 0
rfoot -21.5464 -9.30973 0
rtoes -17.3147 0 0
lowerback -7.53628 -4.95777 -4.94112
upperback -1.21762 -6.25928 2.62848
thorax 3.74625 -3.2115 4.81006
lowerneck -19.3552 -5.35248 -13.11
upperneck 21.1985 -6.89991 13.3861
head 11.0051 -2.68004 6.05218
lclavicle -5.08068e-14 1.04829e-14 0
lhumerus -19.4133 -31.8163 96.6687
lradius 32.6056 0 0
lwrist 10.5715 0 0
lhand -9.84403 -21.7262 0
lfingers 7.12502 0 0
lthumb 16.1342 7.6281 0
rclavicle -5.08068e-14 1.04829e-14 0
rhumerus -48.5256 3.77523 -81.588
rradius 30.2723 0 0
rwrist -16.1106 0 0
rhand -27.1897 -25.5216 0
rfingers 7.12502 0 0
rthumb -0.603281 -55.4991 0
327
root 9.64449 16.6506 9.69051 6.89802 10.3434 1.88073
lfemur 15.1436 5.16851 -18.4518
ltibia 20.4712 0 0
lfoot 1.581 0.19698 0
ltoes -6.62513 0 0
rfemur -40.3779 8.33162 12.7027
rtibia 31.3166 0 0
rfoot -20.8035 -8.50765 0
rtoes -16.9318 0 0
lowerback -7.44075 -4.93695 -4.75635
upperback -1.24957 -6.25198 2.69208
thorax 3.64583 -3.20319 4.7834
lowerneck -19.3906 -5.35983 -13.1355
upperneck 21.1537 -6.9182 13.4783
head 11.0036 -2.67889 6.0876
lclavicle -4.68176e-14 9.44601e-15 0
lhumerus -19.9982 -31.0112 97.0161
lradius 31.9249 0 0
lwrist 9.92274 0 0
lhand -9.84897 -21.7807 0
lfingers 7.12502 0 0
lthumb 16.1295 7.57409 0
rclavicle -4.68176e-14 9.44601e-15 0
rhumerus -48.4245 3.73605 -81.5416
rradius 30.2286 0 0
rwrist -16.0946 0 0
rhand -27.29 -25.4469 0
rfingers 7.12502 0 0
rthumb -0.700204 -55.4241 0
328
root 9.61946 16.6514 9.87769 6.81313 10.4184 1.62149
lfemur 14.7654 5.33143 -17.7812
ltibia 22.333 0 0
lfoot 2.71886 0.318914 0
ltoes -7.13662 0 0
rfemur -39.9874 7.82733 13.6132
rtibia 32.1576 0 0
rfoot -20.0618 -7.70371 0
rtoes -16.5483 0 0
lowerback -7.3436 -4.91242 -4.5689
upperback -1.28072 -6.23998 2.75532
thorax 3.54478 -3.1925 4.75538
lowerneck -19.4271 -5.36689 -13.1599
upperneck 21.1095 -6.93593 13.5689
head 11.0024 -2.67752 6.12233
lclavicle -4.28132e-14 8.41553e-15 0
lhumerus -20.5939 -30.1951 97.3582
lradius 31.2413 0 0
lwrist 9.27302 0 0
lhand -9.85812 -21.8362 0
lfingers 7.12502 0 0
lthumb 16.1207 7.51921 0
rclavicle -4.28132e-14 8.41553e-15 0
rhumerus -48.3148 3.70587 -81.4971
rradius 30.197 0 0
rwrist -16.0851 0 0
rhand -27.3928 -25.37 0
rfingers 7.12502 0 0
rthumb -0.799455 -55.3468 0
329
root 9.59463 16.6525 10.0642 6.72814 10.4845 1.36197
lfemur 14.3511 5.49307 -17.1205
ltibia 24.1995 0 0
lfoot 3.82884 0.448321 0
ltoes -7.63874 0 0
rfemur -39.5811 7.32315 14.5261
rtibia 32.999 0 0
rfoot -19.3264 -6.90224 0
rtoes -16.1666 0 0
lowerback -7.24555 -4.88411 -4.3798
upperback -1.31088 -6.22306 2.81781
thorax 3.44375 -3.17934 4.72609
lowerneck -19.4645 -5.37379 -13.1831
upperneck 21.0662 -6.95324 13.6574
head 11.0016 -2.67607 6.15611
lclavicle -3.88182e-14 7.39817e-15 0
lhumerus -21.1984 -29.3736 97.6936
lradius 30.5596 0 0
lwrist 8.62758 0 0
lhand -9.87148 -21.8924 0
lfingers 7.12502 0 0
lthumb 16.1078 7.46398 0
rclavicle -3.88182e-14 7.39817e-15 0
rhumerus -48.1963 3.68576 -81.4549
rradius 30.1781 0 0
rwrist -16.0822 0 0
rhand -27.4974 -25.2916 0
rfingers 7.12502 0 0
rthumb -0.900538 -55.268 0
330
root 9.57012 16.6539 10.2497 6.64367 10.5414 1.10357
lfemur 13.9015 5.65233 -16.4735
ltibia 26.0601 0 0
lfoot 4.90331 0.584873 0
ltoes -8.12819 0 0
rfemur -39.1602 6.82306 15.4363
rtibia 33.8326 0 0
rfoot -18.6021 -6.10758 0
rtoes -15.7892 0 0
lowerback -7.14731 -4.85196 -4.19007
upperback -1.33986 -6.20102 2.87916
thorax 3.34342 -3.16365 4.69567
lowerneck -19.5023 -5.38066 -13.2049
upperneck 21.0242 -6.97028 13.7432
head 11.001 -2.67469 6.18871
lclavicle -3.4857e-14 6.40064e-15 0
lhumerus -21.8099 -28.5525 98.0206
lradius 29.8848 0 0
lwrist 7.9917 0 0
lhand -9.88904 -21.9487 0
lfingers 7.12502 0 0
lthumb 16.0909 7.40888 0
rclavicle -3.4857e-14 6.40064e-15 0
rhumerus -48.0687 3.67677 -81.4153
rradius 30.1723 0 0
rwrist -16.0861 0 0
rhand -27.6035 -25.2123 0
rfingers 7.12502 0 0
rthumb -1.00296 -55.1883 0
331
root 9.54605 16.6556 10.4341 6.56037 10.5891 0.84763
lfemur 13.4173 5.80809 -15.844
ltibia 27.9042 0 0
lfoot 5.93466 0.728241 0
ltoes -8.60171 0 0
rfemur -38.726 6.33104 16.3382
rtibia 34.6506 0 0
rfoot -17.894 -5.32406 0
rtoes -15.4185 0 0
lowerback -7.04958 -4.81591 -4.00075
upperback -1.36748 -6.17364 2.93899
thorax 3.24445 -3.14534 4.66423
lowerneck -19.5403 -5.38766 -13.2254
upperneck 20.9836 -6.98722 13.8258
head 11.0008 -2.67349 6.21987
lclavicle -3.09541e-14 5.42961e-15 0
lhumerus -22.4265 -27.7374 98.3378
lradius 29.2217 0 0
lwrist 7.37066 0 0
lhand -9.91081 -22.0047 0
lfingers 7.12502 0 0
lthumb 16.0699 7.35442 0
rclavicle -3.09541e-14 5.42961e-15 0
rhumerus -47.9319 3.67996 -81.3787
rradius 30.1801 0 0
rwrist -16.0969 0 0
rhand -27.7104 -25.1328 0
rfingers 7.12502 0 0
rthumb -1.10622 -55.1083 0
332
root 9.52254 16.6577 10.6169 6.47886 10.6274 0.59554
lfemur 12.8993 5.95924 -15.2359
ltibia 29.721 0 0
lfoot 6.91527 0.878096 0
ltoes -9.05601 0 0
rfemur -38.2796 5.85109 17.2267
rtibia 35.4452 0 0
rfoot -17.2071 -4.55602 0
rtoes -15.0571 0 0
lowerback -6.95308 -4.7759 -3.81287
upperback -1.39355 -6.14072 2.9969
thorax 3.1475 -3.12435 4.63189
lowerneck -19.578 -5.39491 -13.2442
upperneck 20.9447 -7.00419 13.9045
head 11.0009 -2.67263 6.24934
lclavicle -2.71341e-14 4.49177e-15 0
lhumerus -23.0465 -26.934 98.6435
lradius 28.5754 0 0
lwrist 6.76976 0 0
lhand -9.93679 -22.0598 0
lfingers 7.12502 0 0
lthumb 16.0449 7.30109 0
rclavicle -2.71341e-14 4.49177e-15 0
rhumerus -47.7854 3.69639 -81.3457
rradius 30.2021 0 0
rwrist -16.1147 0 0
rhand -27.8177 -25.0537 0
rfingers 7.12502 0 0
rthumb -1.20984 -55.0288 0
333
root 9.49972 16.6601 10.7981 6.39978 10.656 0.348665
lfemur 12.3482 6.10466 -14.6528
ltibia 31.5 0 0
lfoot 7.83753 1.03411 0
ltoes -9.48782 0 0
rfemur -37.8224 5.38718 18.0963
rtibia 36.2084 0 0
rfoot -16.5463 -3.8078 0
rtoes -14.7074 0 0
lowerback -6.85851 -4.73186 -3.62744
upperback -1.41788 -6.10205 3.05251
thorax 3.05323 -3.1006 4.59876
lowerneck -19.615 -5.40256 -13.2615
upperneck 20.9079 -7.02136 13.9789
head 11.0014 -2.67222 6.27688
lclavicle -2.34215e-14 3.5938e-15 0
lhumerus -23.6679 -26.1479 98.9362
lradius 27.9506 0 0
lwrist 6.19426 0 0
lhand -9.96698 -22.1135 0
lfingers 7.12502 0 0
lthumb 16.0158 7.2494 0
rclavicle -2.34215e-14 3.5938e-15 0
rhumerus -47.6292 3.72711 -81.3165
rradius 30.2386 0 0
rwrist -16.1397 0 0
rhand -27.9248 -24.9757 0
rfingers 7.12502 0 0
rthumb -1.3133 -54.9503 0
